# xmcd
#
# Track frame offsets:
#	150
#	14638
#	33667
#	51633
#	69999
#	89007
#	109006
#	125165
#	143260
#	161455
#	177068
#	195014
#
# Disc length: 2826 seconds
#
# Revision: 1
# Processed by: cddbd v1.5.2PL0 Copyright (c) Steve Scherf et al.
# Submitted via: audiograbber 1.83.01
#
DISCID=a00b080c
DTITLE=Johnny Mathis - Heavenly
DYEAR=1959
DGENRE=Easy Listening
TTITLE0=Heavenly
TTITLE1=Hello, Young Lovers
TTITLE2=A Lovely Way To Spend An Evening
TTITLE3=A Ride On A Rainbow
TTITLE4=More Than You Know
TTITLE5=Something I Dreamed Last Night
TTITLE6=Misty
TTITLE7=Stranger In Paradise
TTITLE8=Moonlight Becomes You
TTITLE9=They Say It's Wonderful
TTITLE10=I'll Be Easy To Find
TTITLE11=That's All
EXTD=
EXTT0=
EXTT1=
EXTT2=
EXTT3=
EXTT4=
EXTT5=
EXTT6=
EXTT7=
EXTT8=
EXTT9=
EXTT10=
EXTT11=
PLAYORDER=
